<svg xmlns="http://www.w3.org/2000/svg" width="196" height="196" fill="none" viewBox="0 0 196 196">
    <path fill="#142C3D" d="M146.606 28.61v-.848H48.94v.848c0 21.104.013 62.79 0 83.894a50.324 50.324 0 001.703 12.936c1.143 4.356 2.752 8.52 4.492 12.644a69.666 69.666 0 007.916 14.121c5.798 7.945 12.884 14.347 21.362 19.101 4.193 2.352 8.694 4.151 13.243 5.606l.118.043s.033-.015.115-.043c4.55-1.455 9.051-3.254 13.243-5.606 8.479-4.754 15.565-11.156 21.362-19.101a69.675 69.675 0 007.917-14.134c1.742-4.124 3.349-8.295 4.494-12.644a50.401 50.401 0 001.71-12.929c-.022-21.099-.009-62.784-.009-83.888z"/>
    <path fill="#fff" d="M142.885 32.623v-.664H52.507v81.194c0 1.021.043 2.045.133 3.049a46.7 46.7 0 001.883 9.349 88.489 88.489 0 004.752 12.196c7.801 16.553 21.181 28.065 38.416 34.297 17.237-6.232 30.624-17.744 38.421-34.28a88.49 88.49 0 004.752-12.196 46.683 46.683 0 001.883-9.349c.09-1.015.133-2.038.133-3.049.007-20 .005-60.566.005-80.547z"/>
    <path fill="#142C3D" d="M63.743 116.655c0-3.824-.017-1.032.013-4.87 0-.884-.2-1.363-1.036-1.502a448.872 448.872 0 01-12.161-2.222c-.93-.18-1.68.161-2.587 1a952.573 952.573 0 01-11.482 10.442c-1.064.948-1.485 1.79-1.478 3.012.039 7.474.037 6.15 0 13.65 0 1.157.372 1.756 1.359 1.926 4.022.696 8.018 1.457 12.052 2.125a2.162 2.162 0 001.565-.472 915.712 915.712 0 0012.828-11.71c.479-.449.87-1.477.886-2.093.078-3.853.04-5.46.041-9.286z"/>
    <path fill="#fff" d="M45.18 133.933l-4.172-.683v-9.206l3.854-3.362 3.829-.092v10.26l-3.51 3.083zm.586-3.702v-6.845l-1.84.915v6.832l1.84-.902zM55.329 118.741l-.952.436v10.854l-2.877 2.97v-12.474l-1.46.679.89-2.676.57-.268v-.677l2.158-3.968 3.237-1.509-.782 2.461-1.742.808v1.544l1.742-.808-.784 2.628z"/>
    <path fill="#142C3D" d="M58.07 105.679l.038-.059V86.068l5.28-8.34 9.8-4.574-1.96 6.514-6.959 3.244V99.59l3.76-.233v-9.632l-3.361 1.565 1.96-6.511 7.557-3.524v20.325l-8.358 5.064-7.758-.965zM92.738 67.12l-.041.058v24.874l-6.157 2.87v-9.037l-3.399 1.585v9.038l-6.157 2.873V75.826l7.718-8.557 8.036-.15zM86.54 81.012V73.25l-3.399.104v9.238l3.4-1.579zM121.531 52.974l-.041.06v25.584l-6.159 2.87V59.105l-3.759-.368V83.25l-6.156 2.872V63.728l-3.713-.385v24.513l-6.16 2.872V62.735l6.16-2.87v2.358l4.399-5.13 5.518.507 4.356-5.113 5.555.487zM134.525 55.233l-1.96 6.511-2.038.952v5.998l6.751-.832-3.959 6.165-8.997.756.039-.06V55.17l5.286-8.348 7.957-3.702-1.959 6.511-5.118 2.396v5.079l3.998-1.873zM83.24 103.743l-.037.054v17.616l-5.723 8.838-3.456 1.613v3.049l-5.724 5.976v-6.357l-2.156 1.004 2.156-5.128v-20.866l5.724-3.702v2.193l4.087-4.769 5.13.479zm-5.76 6.751l-3.456-.357v16.523l3.456-1.614v-14.552zM101.006 95.72l-.037 19.341-7.581 8.739-7.546.137.039-19.343 7.58-8.74 7.545-.134zm-5.76 5.662l-3.642.102v16.798l3.641-.101v-16.799zM105.687 113.493V98.849l2.714-3.754-5.613 2.613 2.751-6.411 8.733-4.073 6.17 3.293v14.493l-5.238 7.653-12.561 5.856 3.044-5.026zm8.994-5.791V94.916l-2.613-1.537-.669.313v12.849l-2.924 4.055 6.206-2.894zM123.045 97.93l.037-.054v-9.439l4.906-7.75 9.254-4.317-2.529 6.386-5.91 2.752v5.91l1.226.284 2.565-5.283 4.87.925-.037.055v9.438l-4.87 7.736-9.253 4.316 2.489-6.363 5.911-2.757v-5.907l-1.191-.3-2.601 5.3-4.867-.932z"/>
</svg>
