<?xml version="1.0" encoding="utf-8"?>
<!-- Generator: Adobe Illustrator 23.1.1, SVG Export Plug-In . SVG Version: 6.00 Build 0)  -->
<svg version="1.1" id="Layer_1" xmlns="http://www.w3.org/2000/svg" xmlns:xlink="http://www.w3.org/1999/xlink" x="0px" y="0px"
	 viewBox="0 0 1920 1070" style="enable-background:new 0 0 1920 1070;" xml:space="preserve">
<style type="text/css">
	.st0{fill:url(#SVGID_1_);}
</style>
<linearGradient id="SVGID_1_" gradientUnits="userSpaceOnUse" x1="12.0875" y1="608.6855" x2="1906.6844" y2="608.6855">
	<stop  offset="0" style="stop-color:#F4633A"/>
	<stop  offset="1" style="stop-color:#C800A1"/>
</linearGradient>
<path class="st0" d="M1920,249c-8.2,18.8-17.2,37.4-27.4,55.6c-39.6,70.4-91.5,126.3-163.3,175.7c-115.6,79.7-226.4,77-354.7,73.9
	c-92.8-2.2-198.1-4.8-316.6,26.2C912,618.6,842.8,677.3,775.8,734.1c-60.4,51.2-117.4,99.5-229.3,127.6
	c-77.2,19.4-155.8,16-231.8,12.7c-79.9-3.4-155.3-6.7-228,14.6C55,898.4,26.5,911.5,0,929.1v39.2c28.8-22.3,60.3-38.2,95.6-48.5
	c67.7-19.8,140.5-16.7,217.7-13.4c78.3,3.4,159.3,6.8,241-13.7c53.5-13.4,100.2-32.6,142.7-58.7c37.9-23.3,69.2-49.8,99.5-75.5
	c64.2-54.5,130.7-110.8,269.6-147.1c114.2-29.8,212.6-27.4,307.8-25.2c65.3,1.6,127.1,3.1,188.4-6.4c69.5-10.7,128.4-34,185.3-73.2
	c83.2-57.3,135.7-120.4,172.5-185.7V249z"/>
</svg>
