<svg id="Waves" xmlns="http://www.w3.org/2000/svg" viewBox="0 0 1920 1080">
    <title>Waves</title>
    <path d="M421.37,398.41c121.4,0,231.93-8.69,332.8-26,206.59-35.5,336.9-100.46,451.87-157.77,90.09-44.91,167.91-83.69,262.42-97.37,88.69-12.85,155.56,22.86,233,64.2,36.51,19.49,74.26,39.65,118.68,57.63,30,12.15,63.13,24.75,99.87,36.15v-1.05c-36.59-11.37-69.56-23.92-99.49-36-44.37-18-82.1-38.1-118.59-57.58-77.59-41.43-144.59-77.19-233.61-64.31-94.67,13.7-172.55,52.52-262.72,97.47C1090.68,271,960.45,335.92,754,371.4c-207.07,35.59-454.8,34.69-754-3v1C153.51,388.76,293.48,398.41,421.37,398.41Z"/>
    <path d="M417.63,382.58c125.63,0,239.8-9,343.83-26.95,207.23-35.78,337.89-100.15,453.18-156.94,90.56-44.62,168.77-83.15,263.45-96.34,88.81-12.37,155.38,23.83,232.47,65.75,36.67,19.94,74.6,40.57,119.31,58.92,27.25,11.19,57.12,22.74,90.13,33.37v-1.05c-32.86-10.6-62.6-22.1-89.76-33.25-44.65-18.33-82.55-38.94-119.2-58.87-77.24-42-144-78.28-233.09-65.86-94.83,13.22-173.11,51.78-263.76,96.43C1099,254.55,968.38,318.89,761.29,354.64,552.16,390.75,302.07,390.6,0,354v1C151.88,373.38,290.62,382.59,417.63,382.58Z"/>
    <path d="M431.94,462.13c106.09,0,203.39-7.55,292.71-22.61,204-34.4,332.88-101.71,446.6-161.1,88.38-46.15,164.71-86,258.67-101.64,40.48-6.73,78.82-4,120.68,8.62,37.79,11.38,75.17,29.87,114.74,49.43,35.75,17.68,72.73,36,115.86,52.43,41.07,15.68,86.78,32.37,138.8,46.47v-1c-51.88-14.07-97.47-30.72-138.45-46.37-43.08-16.44-80-34.71-115.77-52.38-79.09-39.11-147.39-72.89-236-58.15-94.12,15.66-170.51,55.55-259,101.75-113.65,59.35-242.47,126.62-446.3,161C525.67,472.05,287.49,468.34,0,427v1C158.38,450.77,301.8,462.13,431.94,462.13Z"/>
    <path d="M413.4,366.81c130.05,0,248-9.32,355.3-27.92,207.86-36.05,338.89-99.84,454.49-156.12,91-44.32,169.68-82.6,264.53-95.31,88.94-11.91,155.23,24.79,232,67.3,36.83,20.4,74.91,41.49,119.9,60.21,24.48,10.19,51.12,20.67,80.4,30.47v-1.06c-29.13-9.76-55.65-20.19-80-30.33-44.93-18.71-83-39.78-119.79-60.16-76.91-42.6-143.33-79.37-232.6-67.42-95,12.73-173.71,51-264.83,95.41-115.55,56.24-246.51,120-454.23,156C557.34,374.52,304.93,375.14,0,339.55v1C150.06,358.06,287.42,366.81,413.4,366.81Z"/>
    <path d="M427.48,430.19c113.45,0,217.1-8.1,312-24.26,205.3-35,334.9-101.09,449.23-159.43C1277.93,201,1355,161.66,1449.19,147c88.48-13.76,156,20.94,234.13,61.12,36.16,18.59,73.54,37.81,117.34,55,37,14.55,76.23,29,119.34,41.5v-1c-43-12.46-82.08-26.88-119-41.39-43.76-17.2-81.12-36.41-117.25-55C1605.47,167,1537.84,132.21,1449,146c-94.38,14.68-171.49,54-260.78,99.59C1074,303.92,944.46,370,739.32,404.94,536.37,439.5,293.39,437.16,0,397.58v1C156.26,419.67,298.24,430.19,427.48,430.19Z"/>
    <path d="M429.91,446.14c109.7,0,210.11-7.82,302.17-23.42C936.73,388,1066,321.32,1180,262.46c88.79-45.84,165.47-85.43,259.55-100.57,88.41-14.22,156.23,20,234.76,59.59,36,18.14,73.15,36.89,116.62,53.73C1829.19,290,1871.6,305.76,1920,319.3v-1c-48.25-13.51-90.54-29.19-128.71-44-43.43-16.83-80.59-35.57-116.53-53.69-78.69-39.69-146.65-74-235.36-59.68-94.24,15.16-171,54.78-259.86,100.66-114,58.83-243.13,125.51-447.62,160.16-200.88,34-441.47,31-731.92-9.48v1C157.4,435.2,300.16,446.14,429.91,446.14Z"/>
    <path d="M1784.45,61.49c37.69,23.52,76.66,47.84,123.29,69.15,3.92,1.79,8,3.63,12.26,5.5V135q-5.88-2.58-11.85-5.3c-46.57-21.28-85.51-45.58-123.17-69.08-38-23.72-73.39-45.8-110.83-60.65h-2.76C1709.66,14.82,1745.68,37.3,1784.45,61.49Z"/>
    <path d="M391.18,304.15c467.23,0,691.2-103.91,865.8-184.92,93.15-43.22,173.61-80.55,269.28-91.31,89.5-10.08,154.75,28.67,230.29,73.52,37.37,22.19,76,45.13,122,65.34,12.76,5.61,26.58,11.45,41.46,17.28V183c-14.73-5.77-28.41-11.56-41.06-17.12-45.93-20.18-84.54-43.11-121.87-65.28-75.7-44.95-141.08-83.76-230.92-73.66-95.83,10.79-176.36,48.15-269.6,91.41C1039.17,219.19,745.22,355.57,0,282.46v1C147,297.88,276.43,304.15,391.18,304.15Z"/>
    <path d="M408.66,351.09c134.65,0,256.55-9.66,367.24-28.93,208.49-36.32,339.89-99.52,455.81-155.29,91.55-44,170.61-82.07,265.65-94.29,89.07-11.46,155.08,25.75,231.52,68.85,37,20.84,75.2,42.4,120.45,61.49,21.68,9.15,45.11,18.53,70.67,27.43v-1.06c-25.41-8.86-48.71-18.18-70.28-27.29-45.2-19.07-83.4-40.61-120.35-61.44-76.6-43.18-142.75-80.47-232.14-69-95.2,12.25-174.33,50.31-266,94.39-115.87,55.74-247.19,118.91-455.55,155.2-213.23,37.14-468,38.52-775.73,4v1C148.06,342.79,283.84,351.09,408.66,351.09Z"/>
    <path d="M1775.13,74.81c37.59,23.07,76.45,46.93,122.87,67.87q10.51,4.74,22,9.65v-1.09c-7.51-3.19-14.71-6.37-21.58-9.47C1852.05,120.86,1813.21,97,1775.66,74c-54.18-33.26-103-63.25-159.85-74H1610C1669.1,9.72,1719.28,40.52,1775.13,74.81Z"/>
    <path d="M384.38,288.69c476.57,0,704-104.23,880.92-185.31C1359,60.41,1440,23.31,1535.89,13c89.67-9.6,154.68,29.64,229.94,75.09,37.48,22.63,76.23,46,122.44,66.61,9.93,4.42,20.5,9,31.73,13.57v-1.08c-11.08-4.53-21.51-9-31.32-13.4-46.15-20.55-84.88-43.94-122.33-66.55C1690.93,41.73,1625.81,2.4,1535.78,12c-96.06,10.29-177.08,47.43-270.9,90.43-176.83,81.05-404,185.22-880.52,185.22-113.15,0-240.42-5.89-384.36-19.35v1C144,282.81,271.18,288.69,384.38,288.69Z"/>
    <path d="M403.37,335.42c139.47,0,265.46-10,379.68-30,209.12-36.58,340.88-99.2,457.13-154.46,92.07-43.76,171.57-81.55,266.81-93.29,89.21-11,155,26.73,231.08,70.4,37.12,21.3,75.49,43.32,121,62.79,18.25,7.8,38.54,16.07,60.93,24.14V214c-22.24-8-42.4-16.24-60.54-24-45.45-19.45-83.8-41.45-120.89-62.73-76.28-43.77-142.16-81.57-231.7-70.53-95.4,11.75-175,49.58-267.12,93.38C1123.56,205.3,991.87,267.9,782.88,304.45,567.6,342.11,310.55,344.28,0,310.89v1C145.85,327.58,279.9,335.42,403.37,335.42Z"/>
    <path d="M397.33,319.67c458.19,0,678.93-103.63,851.27-184.57,92.61-43.49,172.58-81,268-92.3,89.36-10.54,154.85,27.7,230.68,72,37.24,21.74,75.75,44.22,121.5,64.06,15.54,6.74,32.58,13.81,51.2,20.8v-1.07c-18.46-6.94-35.37-14-50.8-20.65-45.7-19.82-84.18-42.28-121.4-64-76-44.35-141.6-82.66-231.29-72.09-95.61,11.27-175.65,48.86-268.33,92.39C1131.66,188.92,999.6,250.94,790,287.75c-217.33,38.17-476.67,41.16-790,8.9v1C149.76,313,281.17,319.68,397.33,319.67Z"/>
    <path d="M424.65,414.27c117.33,0,224.37-8.38,322.2-25.12,205.94-35.23,335.89-100.77,450.54-158.6,89.65-45.21,167.07-84.26,261.43-98.43,88.59-13.3,155.76,21.9,233.55,62.66,36.34,19,73.91,38.73,118,56.34,34,13.58,70.07,27.07,109.6,38.93v-1c-39.38-11.84-75.3-25.29-109.23-38.82-44.07-17.59-81.62-37.26-117.94-56.29-77.94-40.84-145.25-76.12-234.16-62.77-94.51,14.19-172,53.27-261.73,98.53C1082.35,287.45,952.48,353,746.68,388.16c-97.8,16.73-204.73,25.11-322,25.11C296,413.27,155,403.18,0,383v1C155,404.19,296,414.28,424.65,414.27Z"/>
    <path d="M434.32,624q114.92,0,214.26-15.88C845.83,576.63,971.32,503.35,1082,438.69c81.45-47.56,158.38-92.49,251.54-113,88.16-19.46,157.2,8,244.62,42.86,32.9,13.1,66.93,26.66,105.65,39.24,10.67,3.46,21.41,7,32.78,10.78,59.11,19.57,125.46,41.52,203.37,57.69v-1c-77.77-16.15-144-38.08-203-57.62-11.37-3.76-22.11-7.32-32.79-10.78-38.69-12.58-72.7-26.12-105.59-39.22-87.58-34.88-156.76-62.43-245.2-42.91-93.32,20.6-170.32,65.56-251.83,113.17-110.65,64.61-236,137.84-433.12,169.25C470.44,635.45,256.91,625.87,0,577.64v1C161.19,608.9,305.32,624,434.32,624Z"/>
    <path d="M435.33,607.63q118.67,0,221-16.46c197.94-31.74,323.77-104.42,434.78-168.55,81.73-47.21,158.92-91.8,252.14-111.87,88.1-19,156.65,9,243.44,44.37,33.27,13.57,67.67,27.59,106.93,40.57,8.82,2.91,17.82,5.93,27,9,58.11,19.45,123.05,41.19,199.41,57.36v-1c-76.21-16.16-141.06-37.86-199.09-57.29q-13.77-4.61-27-9c-39.23-13-73.61-27-106.86-40.54-87-35.45-155.62-63.46-244-44.42-93.37,20.09-170.63,64.72-252.43,112C979.64,485.84,853.9,558.47,656.15,590.19,476.07,619.07,260,610,0,562.29v1C161.41,592.9,305.88,607.64,435.33,607.63Z"/>
    <path d="M436.05,591.31c340.68,0,514.58-99.36,664.05-184.75,82-46.86,159.48-91.13,252.75-110.69,88.08-18.48,156.15,9.93,242.34,45.88,33.61,14,68.36,28.52,108.13,41.89q10.5,3.53,21.32,7.21c57.08,19.34,120.61,40.86,195.36,57v-1c-74.61-16.16-138-37.66-195-57q-10.83-3.67-21.32-7.21c-39.74-13.36-74.47-27.85-108.07-41.86-86.35-36-154.55-64.48-242.92-45.94-93.43,19.6-171,63.9-253.05,110.8C950.24,491,776.51,590.31,436,590.31,314.2,590.31,171,577.59,0,547v1C171,578.6,314.2,591.32,436.05,591.31Z"/>
    <path d="M433.08,640.3q111.27,0,207.74-15.32C837.39,593.85,962.55,520,1073,454.77c81.17-47.92,157.84-93.18,251-114.24,88.22-20,157.78,7.1,245.85,41.35,32.52,12.64,66.15,25.72,104.32,37.9,12.52,4,25.2,8.15,38.62,12.55,60.09,19.69,127.85,41.88,207.26,58.05v-1c-79.27-16.15-146.93-38.32-207-58-13.42-4.4-26.1-8.55-38.63-12.55-38.13-12.17-71.75-25.24-104.25-37.89-88.24-34.31-157.93-61.41-246.44-41.39-93.28,21.1-170,66.4-251.26,114.36-110.35,65.15-235.42,139-431.8,170.08C464.78,651.84,253.77,641.77,0,593.06v1C160.88,625,304.59,640.3,433.08,640.3Z"/>
    <path d="M434.89,494.23c99.31,0,190.67-7,274.78-21.08,202.66-33.83,330.86-102.32,444-162.75,87.61-46.82,163.28-87.24,257-103.85,40.43-7.16,78.87-4.89,121,7.14,38,10.87,75.86,28.84,115.91,47.86,35.3,16.77,71.81,34.1,114.21,49.8,50.61,18.75,101.39,36.76,158.27,51.23v-1c-56.74-14.45-107.42-32.43-157.93-51.13-42.35-15.69-78.84-33-114.12-49.77-40.09-19-78-37-116.06-47.92-42.25-12.07-80.83-14.35-121.41-7.16-93.89,16.63-169.62,57.09-257.31,103.94-113,60.4-241.16,128.86-443.67,162.65-194.66,32.49-428,27.47-709.5-15.55v1C159.92,482.05,304.31,494.23,434.89,494.23Z"/>
    <path d="M429.92,673.06q104.38,0,195.33-14.25C820.44,628.31,944.94,553.22,1054.79,487c80.65-48.65,156.83-94.59,249.89-116.67,88.4-21,159.08,5.2,248.56,38.33,31.68,11.73,64.44,23.87,101.41,35.25,16.27,5,32.93,10.37,50.56,16,59.69,19.22,127.34,41,205.7,57q4.56.93,9.09,1.81v-1c-3-.58-5.92-1.16-8.89-1.77-78.3-16-145.93-37.79-205.6-57-17.63-5.67-34.29-11-50.56-16.05-37-11.37-69.69-23.5-101.36-35.22-89.64-33.2-160.45-59.41-249.14-38.37-93.21,22.11-169.46,68.1-250.18,116.78C944.5,552.32,820.09,627.36,625.1,657.83,453.4,684.65,247.45,673.65,0,624.08v1C160,657.14,302.64,673.07,429.92,673.06Z"/>
    <path d="M431.6,656.67q107.79,0,201.45-14.78c195.88-30.81,320.71-105.3,430.84-171,80.91-48.28,157.33-93.89,250.43-115.46,88.29-20.46,158.4,6.16,247.16,39.84,32.12,12.19,65.32,24.8,102.91,36.58,14.39,4.51,29,9.27,44.55,14.3C1770,466,1839.15,488.4,1920,504.56v-1c-80.71-16.15-149.78-38.57-210.75-58.36-15.51-5-30.17-9.79-44.56-14.3-37.56-11.78-70.75-24.38-102.85-36.56-88.92-33.75-159.15-60.41-247.75-39.88C1220.85,376,1144.36,421.69,1063.38,470,953.32,535.68,828.58,610.12,632.89,640.9,459.1,668.24,250.61,657.69,0,608.53v1C160.48,641,303.7,656.67,431.6,656.67Z"/>
    <path d="M435.85,510.33c96.11,0,184.64-6.79,266.28-20.35,202-33.53,329.85-102.63,442.66-163.58,87.24-47.15,162.59-87.87,256.23-105,40.41-7.38,78.9-5.34,121.12,6.4,38.17,10.62,76.23,28.32,116.53,47.07,35.06,16.31,71.32,33.18,113.32,48.49,44.83,16.34,101.23,36.9,168,53.39v-1c-66.63-16.47-122.92-37-167.67-53.3-42-15.3-78.2-32.15-113.24-48.46-40.33-18.76-78.43-36.49-116.68-47.12-42.38-11.79-81-13.83-121.57-6.43-93.79,17.13-169.21,57.88-256.53,105.07C1031.58,386.44,903.8,455.49,702,489,509.39,521,278.49,515.31,0,471.52v1C160.48,497.75,305.19,510.33,435.85,510.33Z"/>
    <path d="M436.92,575.13c345.44,0,521.22-99.32,672.17-184.63,82.32-46.51,160.07-90.45,253.4-109.52,88-18,155.67,10.87,241.28,47.4,33.94,14.48,69,29.45,109.29,43.21l15.67,5.38c56,19.24,118.16,40.56,191.27,56.76v-1c-73-16.19-135-37.48-190.94-56.69l-15.68-5.37c-40.22-13.75-75.3-28.72-109.21-43.19-85.78-36.6-153.53-65.51-241.88-47.46-93.49,19.1-171.3,63.08-253.69,109.63-150.85,85.25-326.45,184.5-671.71,184.5-122.22,0-265.73-12.45-436.89-42.36v1C171.17,562.69,314.67,575.14,436.92,575.13Z"/>
    <path d="M436.49,526.47c93,0,178.83-6.56,258.08-19.65,201.32-33.24,328.84-102.93,441.34-164.41,86.89-47.49,161.93-88.5,255.48-106.09,40.39-7.59,78.94-5.79,121.31,5.67,38.31,10.36,76.62,27.81,117.17,46.29,34.8,15.85,70.79,32.24,112.39,47.17,52.47,18.83,110,39.47,177.74,55.69v-1c-67.58-16.2-125-36.81-177.4-55.61-41.56-14.92-77.53-31.3-112.31-47.14-40.6-18.5-78.94-36-117.33-46.35-42.52-11.5-81.21-13.3-121.76-5.68C1297.5,253,1222.39,294,1135.43,341.53,1023,403,895.56,472.62,694.4,505.84,503.9,537.29,275.45,531,0,486.49v1C160.93,513.51,305.83,526.47,436.49,526.47Z"/>
    <path d="M436.86,558.85c87.14,0,167.81-6.12,242.48-18.31,200-32.66,326.82-103.54,438.72-166.08,82.62-46.18,160.67-89.79,254.06-108.36,88.05-17.51,155.24,11.8,240.3,48.91,34.24,14.94,69.65,30.38,110.37,44.54l10.13,3.52c55,19.13,115.67,40.27,187.08,56.49v-1c-71.27-16.2-131.87-37.3-186.75-56.4l-10.13-3.53c-40.69-14.14-76.08-29.58-110.3-44.51-41.15-17.95-80-34.91-118.71-44.78-42.82-10.92-81.65-12.26-122.19-4.19-93.54,18.6-171.66,62.25-254.35,108.47-111.83,62.5-238.58,133.33-438.39,166C492.85,570,269.33,562.53,0,516.62v1C161.46,545.15,306.45,558.85,436.86,558.85Z"/>
    <path d="M436.82,542.64c90,0,173.23-6.33,250.15-19,200.65-32.95,327.82-103.23,440-165.24,86.54-47.83,161.29-89.14,254.75-107.22,40.39-7.81,79-6.25,121.52,4.92,38.46,10.11,77,27.31,117.85,45.51,34.53,15.4,70.23,31.32,111.4,45.86l4.67,1.65c53.86,19,113.14,40,182.81,56.21v-1c-69.53-16.22-128.7-37.13-182.47-56.13l-4.67-1.65c-41.14-14.52-76.82-30.43-111.33-45.82-40.87-18.23-79.47-35.44-118-45.56-42.66-11.21-81.42-12.78-122-4.94-93.62,18.11-168.43,59.45-255,107.32-112.13,62-239.22,132.22-439.7,165.14C498.39,553.63,272.41,546.77,0,501.53v1C161.25,529.31,306.24,542.65,436.82,542.64Z"/>
    <path d="M265.83,137.94c229,0,428.8-16.07,605.17-48.46C1007.79,64.36,1115.13,32.08,1204.57,0h-3c-88.87,31.75-195.41,63.64-330.79,88.5C629.41,132.83,344.09,146.58,0,130.38v1Q139.17,137.93,265.83,137.94Z"/>
    <path d="M247.85,123.39c238.87,0,446.58-16.7,629.44-50.39,113.83-21,207.33-46.67,287.13-73h-3.2c-79.13,26-171.71,51.3-284.11,72C633.74,116.85,346.4,131.58,0,116.9v1Q129.3,123.38,247.85,123.39Z"/>
    <path d="M428,689.48q101.1,0,189.41-13.74c86.91-13.48,167.15-37.1,245.29-72.19,68.82-30.91,126.83-66.27,182.93-100.47,80.4-49,156.35-95.31,249.39-117.9,88.51-21.48,159.79,4.25,250,36.83,31.22,11.28,63.51,22.94,99.84,33.92,18.16,5.49,36.84,11.46,56.62,17.78,58,18.54,123.8,39.55,199.21,55.41q9.68,2,19.25,3.84v-1q-9.48-1.8-19-3.8c-75.36-15.84-141.1-36.85-199.11-55.39-19.78-6.32-38.46-12.29-56.63-17.78-36.3-11-68.58-22.63-99.79-33.9-90.4-32.64-161.8-58.41-250.61-36.86-93.19,22.62-169.2,69-249.67,118-56.07,34.18-114.05,69.52-182.82,100.4-78.06,35.06-158.21,58.65-245,72.12-169.6,26.32-373,14.88-617.28-35.08v1C159.42,673.3,301.43,689.49,428,689.48Z"/>
    <path d="M228.39,109c249.39,0,465.4-17.36,655.11-52.43A2235,2235,0,0,0,1119.25,0h-3.49A2232.57,2232.57,0,0,1,883.31,55.54C638,100.89,348.67,116.61,0,103.47v1Q118.68,108.94,228.39,109Z"/>
    <path d="M207.32,94.65c260.56,0,485.4-18.05,682.3-54.57C955.32,27.9,1014.29,14.29,1067.81,0h-3.89c-52.53,13.93-110.3,27.2-174.48,39.1C642.18,85,350.9,101.68,0,90.11v1Q107.31,94.65,207.32,94.65Z"/>
    <path d="M297.75,167.38c210.9,0,396.14-14.9,560.43-44.86C1039.92,89.38,1169.33,42.31,1273.81,0h-2.67C1167.1,42.05,1038.32,88.65,858,121.54c-164.25,30-349.38,44.84-560.25,44.84q-141,0-297.75-8.88v1Q156.95,167.36,297.75,167.38Z"/>
    <path d="M282.43,152.61c219.68,0,412-15.48,582.2-46.62C1024,76.83,1143.23,37.46,1240.74,0h-2.8c-97,37.16-215.55,76.1-373.49,105C625,148.83,341.72,161.6,0,143.91v1Q148.38,152.59,282.43,152.61Z"/>
    <path d="M103.82,39C348,38.94,563.2,26.09,755.08,0H747.6C530.8,29,284.34,41.22,0,37.2v1Q52.79,39,103.82,39Z"/>
    <path d="M311.89,182.25c202.6,0,381.1-14.35,539.77-43.18C1055.92,102,1193.85,46.43,1304.62,0H1302c-110.35,46.22-247.74,101.23-450.54,138.08-158.64,28.83-337,43.17-539.6,43.17Q164.73,181.25,0,171.16v1Q164.93,182.24,311.89,182.25Z"/>
    <path d="M72.18,25.46C275.41,25.45,458.94,17,626,0H616C451.68,16.37,271.42,24.46,72.19,24.46Q36.54,24.46,0,24.1v1Q36.49,25.44,72.18,25.46Z"/>
    <path d="M37.84,12.17c145,0,280.14-4,406.61-12.17h-16C295.62,8.14,153.22,11.79,0,11.07v1Q19,12.16,37.84,12.17Z"/>
    <path d="M159.76,66.48C445,66.48,689.07,46.94,901.59,7.26Q920.67,3.7,939,0h-5.08q-16,3.2-32.5,6.28C650.3,53.16,355.2,71.92,0,63.54v1Q82,66.47,159.76,66.48Z"/>
    <path d="M132.93,52.62C409,52.62,647.28,35.27,856.2,0h-6.05C642.68,34.6,406.42,51.62,132.94,51.62q-65,0-132.94-1.28v1Q67.91,52.61,132.93,52.62Z"/>
    <path d="M184.5,80.49c272.49,0,506.66-18.78,711.15-56.83,40-7.44,77.49-15.38,112.81-23.66h-4.4C970,7.92,933.87,15.53,895.47,22.68,646.28,69.05,353.07,86.78,0,76.8v1Q95.1,80.49,184.5,80.49Z"/>
    <path d="M324.94,197.22c194.74,0,366.82-13.83,520.14-41.59C1059.55,116.79,1200.65,56.75,1314,8.5L1334,0h-2.56l-17.83,7.58C1200.3,55.81,1059.26,115.83,844.9,154.65c-153.28,27.75-325.25,41.57-520,41.57Q172.09,196.22,0,184.87v1C114.9,193.43,223,197.22,324.94,197.22Z"/>
    <path d="M1822.54,8.51C1853,28.77,1884.36,49.59,1920,68.8V67.66c-35.4-19.12-66.58-39.82-96.91-60L1811.52,0h-1.81Z"/>
    <path d="M1920,51.17V50c-28.41-16.12-54.19-33.19-79.18-50H1839C1864.57,17.21,1890.89,34.69,1920,51.17Z"/>
    <path d="M1920,33.2V32c-17.58-10.45-34.2-21.23-50.3-32h-1.79C1884.56,11.2,1901.76,22.38,1920,33.2Z"/>
    <path d="M1812.55,21.58c33.32,21.8,67.63,44.26,107.45,64.57V85c-39.58-20.23-73.74-42.58-106.9-64.29-10.86-7.1-21.49-14.06-32-20.74h-1.87C1790.17,6.94,1801.24,14.18,1812.55,21.58Z"/>
    <path d="M1920,14.91V13.73Q1909.05,6.93,1898.54,0h-1.82Q1908.12,7.52,1920,14.91Z"/>
    <path d="M1803.17,34.88c35.91,23.14,73,47,116.83,68.22V102c-43.59-21.12-80.52-44.9-116.29-67.95-18.59-12-36.55-23.54-54.44-34h-2C1765.65,10.71,1784.07,22.58,1803.17,34.88Z"/>
    <path d="M376.08,273.31c161.07,0,305.3-11.53,435.1-34.6,211.56-37.61,350.64-100.58,462.39-151.18C1362.75,47.15,1440.45,12,1529.92,0h-7.12c-86.69,12.86-162.71,47.26-249.65,86.62-56.21,25.45-119.92,54.3-194.71,80.9C992.67,198,905.19,221,811,237.72,587.58,277.44,321.47,282.93,0,254.3v1C134.78,267.3,259.81,273.31,376.08,273.31Z"/>
    <path d="M348,227.42c180.24,0,340.39-12.85,483.68-38.61C1045,150.46,1185.31,89.25,1298,40.08c32.82-14.32,64.11-28,95-40.08h-2.72c-30.09,11.88-60.63,25.2-92.63,39.16C1185,88.32,1044.74,149.5,831.53,187.83,602,229.08,329.33,237.21,0,212.47v1C123.76,222.77,239.53,227.42,348,227.42Z"/>
    <path d="M337,212.28c187.29,0,353.29-13.33,501.47-40.07C1052.33,133.62,1193,73,1306.06,24.28c19.7-8.49,38.58-16.62,57-24.28h-2.6c-17.68,7.39-35.84,15.22-54.74,23.36-113,48.69-253.63,109.29-467.43,147.87C606.76,213,331.89,222,0,198.64v1C119.5,208.06,231.59,212.28,337,212.28Z"/>
    <path d="M367.53,257.94c167.14,0,316.45-11.95,450.55-35.88,212.16-37.86,351.63-100.24,463.7-150.36,64.44-28.82,122.92-55,184-71.7H1462c-59.87,16.79-117.39,42.5-180.65,70.79-112,50.1-251.43,112.45-463.47,150.28C592.46,261.3,324.12,267.66,0,240.29v1C131.39,252.39,253.6,257.94,367.53,257.94Z"/>
    <path d="M1793.8,48.19c37.78,24,76.85,48.73,123.67,70.4l2.53,1.16v-1.1l-2.11-1c-46.77-21.64-85.8-46.4-123.56-70.34C1767,30,1741,13.51,1714.57,0h-2.2C1739.35,13.66,1765.86,30.47,1793.8,48.19Z"/>
    <path d="M358.19,242.64c173.52,0,328.13-12.39,466.73-37.21,212.75-38.11,352.62-99.9,465-149.55C1337.32,35,1381.51,15.44,1425.8,0h-3c-43.43,15.3-86.81,34.45-133.26,55-112.34,49.62-252.16,111.39-464.79,149.47-227.46,40.74-498,48-824.74,21.91v1C127.72,237.54,246.85,242.65,358.19,242.64Z"/>
    <path d="M433.59,478.16c102.64,0,196.91-7.29,283.59-21.83,203.32-34.11,331.87-102,445.28-161.93,88-46.48,164-86.62,257.83-102.73,40.45-6.95,78.83-4.45,120.81,7.88,37.9,11.12,75.5,29.35,115.31,48.64,35.54,17.22,72.28,35,115,51.12,45.7,17.18,94,34.57,148.54,48.88v-1c-54.37-14.29-102.58-31.64-148.19-48.79-42.73-16.07-79.45-33.87-115-51.08-39.85-19.31-77.48-37.55-115.47-48.7-42.13-12.37-80.66-14.88-121.26-7.91-94,16.14-170.06,56.32-258.13,102.84-113.34,59.87-241.81,127.74-445,161.82-196.73,33-432.5,28.63-717-13.58v1C159.22,466.38,303.18,478.16,433.59,478.16Z"/>
    <path d="M1525.26,978.37c-73.56-33.89-159.65-69.62-240.39-77.68-79.95-8-138.7-9.62-190.51-5.27-58.41,4.89-108,17.49-156.17,39.63-81.77,37.6-148,90.93-210.62,145h1.53c62.3-53.71,128.24-106.67,209.5-144,48-22.09,97.56-34.66,155.85-39.55,51.74-4.34,110.43-2.71,190.32,5.27,80.6,8.05,166.59,43.75,240.07,77.6A2007.75,2007.75,0,0,1,1715.05,1080h2A2023.29,2023.29,0,0,0,1525.26,978.37Z"/>
    <path d="M1515.11,990.54c-72.81-34.14-158.26-70.08-240-77.81-133.12-12.59-243-11.09-346.58,37.21C854.91,984.27,793.94,1031.26,736.9,1080h1.55c56.73-48.42,117.38-95,190.52-129.16,74.76-34.85,162.22-54.51,346.07-37.11,81.56,7.71,166.91,43.61,239.64,77.72A1863.79,1863.79,0,0,1,1680.53,1080h1.93A1881.56,1881.56,0,0,0,1515.11,990.54Z"/>
    <path d="M1187.48,1021.15c-72.58-3.52-135.4-.15-192.08,10.29-52.63,9.69-100.46,25.61-145.95,48.56h2.21c44.88-22.43,92.07-38,143.92-47.58,56.6-10.42,119.36-13.78,191.85-10.27,57.53,2.62,121.83,21.61,195.6,57.85h2.25C1310.63,1043.12,1245.61,1023.8,1187.48,1021.15Z"/>
    <path d="M1494.8,1014.88c-99.85-48.48-173.6-72.55-239.15-78-155.23-13-255.58-.62-346.38,42.88-57.49,27.54-107.15,62.68-153.21,100.29h1.58c45.75-37.28,95.06-72.08,152.06-99.39,90.63-43.41,190.83-55.81,345.87-42.79,65.41,5.5,139.06,29.54,238.79,78,41.75,20.27,81.58,42,119,64.22h1.9C1568.87,1052.45,1528,1031,1494.8,1014.88Z"/>
    <path d="M1545.57,954c-79-35.09-162.81-68.77-241.22-77.44-143.59-15.88-246.38-16.28-346.89,28.68-94.12,42.1-168,105.36-239.35,166.53l-9.58,8.2h1.54l8.69-7.44c71.35-61.13,145.12-124.33,239.11-166.37,100.31-44.87,202.95-44.47,346.37-28.6,78.27,8.65,162,42.29,240.92,77.36a2343.1,2343.1,0,0,1,241.53,125h2A2345.72,2345.72,0,0,0,1545.57,954Z"/>
    <path d="M1535.42,966.2c-74.35-33.64-161.1-69.17-240.81-77.56-138.95-14.63-245.43-14.46-346.79,31.52C857.84,961,786.53,1021,718.17,1080h1.53c68-58.73,139.07-118.35,228.54-158.93,75-34,159.08-51.14,346.26-31.44,79.57,8.38,166.23,43.87,240.5,77.48A2167.09,2167.09,0,0,1,1750.39,1080h1.95A2167,2167,0,0,0,1535.42,966.2Z"/>
    <path d="M1444,1075.72c-94.38-49.91-169.72-74.9-237.07-78.66-145.22-8.61-251.89,9-345.88,57.09-15.82,8.09-31,16.75-45.71,25.85h1.89c14.25-8.77,29-17.13,44.27-25,93.83-48,200.34-65.58,345.37-57,67.21,3.75,142.41,28.71,236.67,78.55l6.36,3.39h2.1Q1448,1077.86,1444,1075.72Z"/>
    <path d="M1555.72,941.87c-79.85-34.87-164.39-68.37-241.64-77.33-83.29-9.65-140.12-12.62-190-9.94-58.92,3.17-108.79,14.54-157,35.79-94.08,41.49-168,104.28-239.55,165q-14.44,12.27-29.1,24.61H700c9.48-8,18.87-15.93,28.2-23.85,71.46-60.67,145.35-123.41,239.3-164.85,48.07-21.2,97.83-32.54,156.62-35.71,49.84-2.68,106.61.3,189.85,9.95,77.11,8.94,161.57,42.41,241.35,77.24A2546.54,2546.54,0,0,1,1824.15,1080h2A2547.71,2547.71,0,0,0,1555.72,941.87Z"/>
    <path d="M1454.19,1063.56C1359,1014,1283.49,989.08,1216.7,985c-73.77-4.77-136.45-3-191.62,5.57-56.2,8.68-106.69,24.6-154.36,48.68A660.84,660.84,0,0,0,801.28,1080h1.8a658.89,658.89,0,0,1,68.09-39.85c47.58-24,98-39.92,154.06-48.58,55.1-8.51,117.71-10.33,191.4-5.56,66.65,4.06,142,29,237.09,78.43q14.63,7.61,29,15.56h2.06Q1469.63,1071.6,1454.19,1063.56Z"/>
    <path d="M1197.22,1009.11C1053,1001.34,946.4,1019.82,851.44,1069q-10.28,5.32-20.2,11h2q9.18-5.16,18.64-10.07c94.79-49.14,201.27-67.59,345.27-59.83,63.19,3.21,135.19,26.1,219.66,69.9H1419C1333.66,1035.56,1261,1012.34,1197.22,1009.11Z"/>
    <path d="M1474.49,1039.22c-96.67-48.58-172.4-73.46-238.32-78.3-75.93-5.57-136.72-4.77-191.3,2.54-56.69,7.59-107.35,22.64-154.88,46-41.22,20.28-78.37,44.4-113,70.51h1.67c34.31-25.77,71.06-49.58,111.79-69.62,47.43-23.33,98-38.35,154.57-45.93,54.51-7.29,115.24-8.1,191.1-2.53,65.78,4.82,141.39,29.67,237.94,78.19,25.27,12.7,49.88,26.09,73.7,39.89h1.92C1521.61,1063.7,1496.35,1050.2,1474.49,1039.22Z"/>
    <path d="M1464.34,1051.39c-95.8-49-171.4-73.9-237.91-78.42-149.83-10.21-253.33,5.17-346.08,51.41A681.76,681.76,0,0,0,788.58,1080h1.72a676.86,676.86,0,0,1,90.5-54.73c92.58-46.15,195.93-61.5,345.57-51.31,66.36,4.52,141.84,29.41,237.51,78.32q26.16,13.37,51.34,27.72h2C1497.91,1069,1480.22,1059.5,1464.34,1051.39Z"/>
    <path d="M1484.65,1027.05c-98.91-48.86-172.54-73-238.74-78.18C1091.83,936.75,991.5,950,899.63,994.6c-49.39,24-93,53.52-133.42,85.4h1.62c40.13-31.54,83.33-60.76,132.24-84.5,91.69-44.52,191.86-57.74,345.76-45.63,66.07,5.2,139.59,29.28,238.37,78.07,33.35,16.48,65.51,34,96.2,52.06h1.9C1545.22,1058.16,1512.26,1040.69,1484.65,1027.05Z"/>
    <path d="M1505,1002.71c-67.88-32.38-156.45-70.51-239.57-77.93-77.59-6.93-138.23-7.61-190.83-2.15-57.25,6-108.17,19.75-155.65,42.19-65.56,31-121,71.93-172.56,115.18h1.55c51.25-42.92,106.36-83.52,171.44-114.27,47.38-22.4,98.19-36.17,155.33-42.1,52.53-5.46,113.1-4.78,190.63,2.14,43.58,3.9,110.15,16.26,239.22,77.84,50.57,24.13,98.24,50.17,142.15,76.39h1.91C1592.71,1046.61,1543.69,1021.19,1505,1002.71Z"/>
    <path d="M206,1080h7.71c-64-8.38-134.73-23.33-213.69-46.23v1C75.79,1056.8,144.05,1071.46,206,1080Z"/>
    <path d="M1657.26,820.18,1635,812.12c-80-29-155.54-56.49-223.56-68l-10.89-1.85c-68.43-11.64-127.53-21.7-181.67-23.83-58.48-2.31-107.86,5-155.42,23.11-93.67,35.6-168.9,93.86-241.65,150.2-104,80.54-209.7,162.38-374.28,188.29h6.36c161.21-27,265.73-107.89,368.53-187.5,72.7-56.3,147.87-114.51,241.39-150.06,47.43-18,96.7-25.34,155-23,54.08,2.13,113.15,12.18,181.55,23.81l10.89,1.86c67.92,11.53,143.43,38.95,223.38,68l22.23,8.06c103.85,37.58,192,69.09,263.08,94.33v-1.06C1848.94,889.17,1760.94,857.7,1657.26,820.18Z"/>
    <path d="M1647.11,832.35l-13.8-5.1c-82.88-30.62-161.17-59.55-231.57-71.12l-2.7-.45c-70.52-11.59-131.42-21.61-186.84-23.54-59.77-2.09-110.08,5.62-158.35,24.26C960.14,792.57,885.05,851.27,812.43,908c-85.85,67.11-174,136-296,172h3.5c120.51-36.22,208-104.59,293.16-171.17,72.57-56.72,147.6-115.38,241.17-151.5,48.14-18.58,98.32-26.27,158-24.19,55.36,1.93,116.23,11.94,186.72,23.53l2.69.44c70.32,11.56,148.56,40.47,231.39,71.08l13.8,5.09c108.61,40.08,200.26,74.41,273.24,102v-1.07C1847.07,906.64,1755.54,872.36,1647.11,832.35Z"/>
    <path d="M37.5,1080h3.86Q20.95,1074.52,0,1068.36v1Q19,1075,37.5,1080Z"/>
    <path d="M1637,844.51l-5.27-2c-85.8-32.28-166.85-62.78-239.68-74.36-140.37-22.32-241.79-38.44-347.79,3.11C950.46,808,875.5,867.18,803,924.38c-53.5,42.21-108.81,85.86-171.75,120.79A623.85,623.85,0,0,1,557.85,1080h2.69a627.55,627.55,0,0,0,71.21-34c63-35,118.35-78.64,171.88-120.87C876.06,868,951,808.91,1044.58,772.22c105.74-41.46,207-25.35,347.26-3.06,72.74,11.57,153.73,42,239.48,74.31l5.28,2C1750,888.12,1845.26,925.52,1920,955.61v-1.08C1845.31,924.47,1750.2,887.12,1637,844.51Z"/>
    <path d="M93.8,1076.67q7.47,1.72,14.85,3.33h4.75q-9.63-2.07-19.38-4.3-45.7-10.5-94-24.62v1Q48.24,1066.21,93.8,1076.67Z"/>
    <path d="M1596.34,893.19c-85.22-34.58-168-66.48-243.3-76.83-76.68-10.54-135.11-16.92-189.34-16.18-59.54.81-109.76,10.55-158,30.65-93.92,39.1-168.37,100-240.36,159-37.37,30.6-75.65,61.91-116.67,90.17h1.77c40.6-28.06,78.51-59.09,115.53-89.4C837.87,931.7,912.26,870.8,1006,831.76c48.16-20,98.26-29.77,157.67-30.58,54.17-.74,112.56,5.64,189.19,16.17,75.23,10.34,157.9,42.21,243.06,76.77,133.56,54.19,243.54,106.89,324,148.42v-1.13C1839.51,999.91,1729.67,947.29,1596.34,893.19Z"/>
    <path d="M1626.8,856.68c-87-33.37-169.24-64.89-244.54-76.46-148.86-22.86-245.29-34.81-347.69,5.95-93.79,37.34-168.62,96.93-241,154.56-53.4,42.53-108.61,86.5-171.33,121.58q-16.89,9.45-34,17.69h2.29q16.15-7.87,32.16-16.82c62.79-35.12,118-79.11,171.46-121.66,72.31-57.59,147.08-117.14,240.73-154.42,102.16-40.66,198.48-28.73,347.17-5.89,75.19,11.55,157.35,43,244.33,76.41C1744.78,903,1843.61,943.74,1920,976.48v-1.09C1843.65,942.67,1745,902,1626.8,856.68Z"/>
    <path d="M1586.18,905.36c-80.72-33.37-166-66.8-242.88-77-73.67-9.73-134.08-15.93-189.51-14.63-59.39,1.41-109.52,11.56-157.77,31.94-94,39.7-168.28,101.1-240.15,160.49-30,24.79-60.6,50.06-92.71,73.79h1.69c31.73-23.51,62-48.5,91.65-73,71.82-59.34,146.08-120.7,239.91-160.34,48.13-20.33,98.14-30.45,157.4-31.86,55.36-1.31,115.73,4.89,189.36,14.62,76.78,10.14,162,43.54,242.63,76.88a3418.73,3418.73,0,0,1,334.2,159.5v-1.14A3416.94,3416.94,0,0,0,1586.18,905.36Z"/>
    <path d="M1576,917.53c-97.23-40.94-171.71-68.11-242.47-77.08-63-8-129.62-15.08-189.68-13.06-59.23,2-109.28,12.55-157.5,33.22-94,40.29-168.2,102.16-240,162-23,19.17-46.3,38.61-70.38,57.41h1.62c23.73-18.56,46.73-37.74,69.4-56.64,71.7-59.78,145.83-121.6,239.7-161.83C1084.2,819.77,1180,822,1333.44,841.44c70.64,8.95,145,36.1,242.2,77A3063.66,3063.66,0,0,1,1903.42,1080h2A3062.25,3062.25,0,0,0,1576,917.53Z"/>
    <path d="M1565.88,929.7c-93.38-40-170.28-68.49-242.06-77.2-149.17-18.1-248.67-19.79-347.08,23C882.7,916.39,808.62,978.71,737,1039c-16.21,13.64-32.59,27.42-49.28,41h1.58c16.37-13.34,32.44-26.86,48.34-40.25,71.58-60.22,145.6-122.5,239.51-163.34,98.2-42.7,197.56-41,346.56-22.92,71.66,8.69,148.48,37.12,241.78,77.13A2784,2784,0,0,1,1863,1080h2A2783.33,2783.33,0,0,0,1565.88,929.7Z"/>
    <path d="M425.94,705.93q97.92,0,183.66-13.25c86.61-13.34,166.57-37,244.42-72.24,68.59-31.06,126.5-66.74,182.49-101.24,80.17-49.39,155.88-96,248.91-119.13,88.65-22,160.55,3.29,251.58,35.32,30.74,10.82,62.53,22,98.18,32.58,20.06,5.95,40.8,12.54,62.75,19.51,56.33,17.89,120.18,38.16,192.66,53.8q14.82,3.21,29.41,5.91v-1q-14.48-2.68-29.2-5.87c-72.44-15.63-136.26-35.89-192.56-53.77-22-7-42.71-13.56-62.77-19.51-35.63-10.57-67.41-21.76-98.14-32.57-91.18-32.09-163.21-57.43-252.15-35.35-93.18,23.13-169,69.82-249.19,119.25-56,34.48-113.85,70.14-182.38,101.18C775.84,654.76,696,678.36,609.45,691.69,441.94,717.5,241.08,705.64,0,655.34v1C158.76,689.48,300.08,705.93,425.94,705.93Z"/>
    <path d="M1616.64,868.85c-94.36-36.88-172.25-65.93-244.12-76.58-148.34-22-245.75-32.36-347.59,8.79C931.1,839,856.4,899,784.16,957.09c-53.3,42.84-108.41,87.14-170.9,122.37l-1,.54h2c62.33-35.21,117.3-79.39,170.47-122.13,72.18-58,146.82-118,240.52-155.88,101.6-41.06,198.89-30.69,347.06-8.74,71.77,10.64,149.61,39.68,243.91,76.53C1739.6,918,1842.09,962.37,1920,997.91v-1.1C1842.13,961.29,1739.77,917,1616.64,868.85Z"/>
    <path d="M1606.49,881c-89.75-35.74-170-66.19-243.71-76.71-143-20.42-244.43-30.64-347.49,11.64-93.87,38.51-168.44,99-240.56,157.51-45.18,36.65-91.68,74.34-142.81,106.54h1.87c50.66-32,96.77-69.42,141.57-105.77,72.06-58.46,146.57-118.91,240.31-157.36,102.83-42.18,204.14-32,347-11.57,73.56,10.51,153.79,40.93,243.48,76.65,128.4,51.13,234.59,99.49,313.88,138v-1.11C1840.74,980.36,1734.67,932.07,1606.49,881Z"/>
    <path d="M189.82,855.06c73.31,11.09,141.17,16.62,204.8,16.62a963.78,963.78,0,0,0,135.68-9.2C717.09,836,832.53,757.15,944.16,680.93c78.09-53.31,151.85-103.67,244.92-132,91.56-27.87,171.87-6.63,273.55,20.25,23.87,6.32,48.56,12.84,75.22,19.27,39.67,9.56,82.48,23.06,127.81,37.36,39.07,12.32,79.47,25.06,123.33,37.14,47.62,13.11,91.27,23,131,30.38v-1c-39.66-7.37-83.23-17.24-130.74-30.32-43.85-12.08-84.24-24.82-123.3-37.14-45.34-14.3-88.17-27.8-127.88-37.37-26.65-6.43-51.32-13-75.19-19.26-101.84-26.93-182.27-48.2-274.1-20.25-93.22,28.38-167,78.78-245.19,132.14C832.06,756.26,716.72,835,530.16,861.49c-101.07,14.34-212.35,11.92-340.2-7.41Q100.78,840.6,0,815.56v1Q100.52,841.54,189.82,855.06Z"/>
    <path d="M196.62,839.25c72.11,10.53,139,15.78,201.77,15.78a983.91,983.91,0,0,0,139.91-9.57c83.9-12,161.27-35.72,236.53-72.48,66.56-32.51,123.53-71,178.63-108.26,78.27-52.91,152.2-102.88,245.25-130.68,91.12-27.22,170.37-5.6,270.7,21.77,24.77,6.76,50.39,13.74,78.17,20.59,37.65,9.29,78.14,22,121,35.47,41.24,13,83.89,26.35,130.56,38.91C1840.65,662,1881,671.1,1920,678.2v-1.1c-44.41-8.07-85.58-17.86-120.59-27.28-46.65-12.56-89.29-26-130.52-38.9-42.88-13.47-83.39-26.2-121.07-35.49-27.77-6.85-53.38-13.83-78.15-20.59-100.48-27.4-179.85-49.05-271.24-21.76-93.2,27.84-167.19,77.86-245.53,130.81-55.07,37.22-112,75.71-178.51,108.19C699.22,808.79,622,832.47,538.16,844.47,436.66,859,325,857,196.76,838.26Q104.53,824.81,0,799.24v1Q104.25,825.74,196.62,839.25Z"/>
    <path d="M402.23,838.35c276.79,0,424.28-98.67,560.52-189.84,78.46-52.5,152.56-102.09,245.6-129.35,90.72-26.58,169-4.58,268,23.27,25.62,7.2,52.1,14.65,81,21.93,35.65,9,73.84,20.94,114.27,33.6,43.38,13.59,88.23,27.64,137.73,40.66,37.93,10,74.91,18.18,110.69,24.58v-1c-35.7-6.39-72.59-14.59-110.43-24.54-49.48-13-94.33-27.06-137.7-40.64-40.44-12.67-78.64-24.63-114.31-33.62-28.84-7.27-55.32-14.72-80.93-21.92-99.21-27.9-177.57-49.93-268.56-23.27-93.19,27.3-167.36,76.94-245.88,129.48C771.56,775.25,558.94,917.5,0,783.06v1C159.86,822.54,291.4,838.36,402.23,838.35Z"/>
    <path d="M176.19,886.69C251.78,898.93,321.5,905,386.71,905a924.2,924.2,0,0,0,127.56-8.5c185.38-25.81,300.21-105.79,411.27-183.13,77.73-54.14,151.15-105.28,244.27-134.69,42.62-13.46,85.37-17.36,134.56-12.28,45.05,4.64,91.51,16.17,145.3,29.52,21.88,5.42,44.51,11,68.71,16.6,43.77,10.07,91.31,25.23,141.64,41.28,34.61,11,70.4,22.45,108.65,33.46,55.78,16.07,106.22,28.06,151.33,37v-1c-45-8.89-95.38-20.87-151-36.9-38.24-11-74-22.42-108.63-33.45-50.35-16.06-97.91-31.22-141.72-41.3-24.19-5.56-46.81-11.18-68.69-16.61-53.83-13.35-100.31-24.88-145.44-29.54-49.33-5.09-92.21-1.17-135,12.33C1076.24,607.2,1002.76,658.38,925,712.57c-111,77.27-225.68,157.18-410.82,183-100.24,14-210.73,10.74-337.79-9.82Q93.31,872.27,0,848.41v1Q93.06,873.21,176.19,886.69Z"/>
    <path d="M210.18,807.64c69.61,9.44,134.38,14.15,195.37,14.15a1028.74,1028.74,0,0,0,148.7-10.33c84.5-12.32,162.45-36,238.29-72.45,67-32.19,124.18-70.07,179.48-106.69C1050.67,580.22,1125,531,1218,504.27c90.35-26,167.64-3.57,265.5,24.78,26.4,7.65,53.7,15.56,83.57,23.26,33.65,8.67,69.56,19.89,107.58,31.78,45.48,14.21,92.51,28.91,144.84,42.36Q1871,639.69,1920,648.34v-1q-48.76-8.64-100.28-21.85c-52.31-13.44-99.32-28.13-144.79-42.35-38-11.88-74-23.11-107.63-31.79-29.85-7.69-57.15-15.6-83.54-23.25-98-28.4-175.43-50.83-266-24.78-93.17,26.78-167.52,76-246.24,128.17C916.2,668.09,859.05,706,792.1,738.11c-75.74,36.39-153.59,60.06-238,72.36-102.32,14.92-214.77,13.67-343.78-3.82C144.78,797.77,74.52,784.43,0,766.79v1C74.47,785.44,144.68,798.76,210.18,807.64Z"/>
    <path d="M183,870.88c74.47,11.65,143.28,17.46,207.71,17.46a943.92,943.92,0,0,0,131.57-8.84c186.09-26.17,301.22-105.56,412.56-182.34,77.91-53.73,151.5-104.48,244.6-133.34,42.36-13.14,84.75-16.77,133.4-11.43,44.53,4.89,90.26,16.61,143.2,30.17,22.91,5.87,46.6,11.94,72.06,17.94,41.72,9.82,86.88,24.14,134.7,39.29,36.86,11.69,75,23.77,116,35.33,51.67,14.55,98.71,25.45,141.17,33.56v-1c-42.38-8.09-89.33-19-140.9-33.5-41-11.56-79.14-23.64-116-35.32-47.83-15.16-93-29.48-134.77-39.32-25.45-6-49.14-12.06-72-17.93-53-13.57-98.73-25.29-143.33-30.19-48.79-5.36-91.31-1.72-133.81,11.46-93.24,28.91-166.89,79.7-244.86,133.47C823,773.05,708,852.38,522.15,878.5c-100.65,14.15-211.54,11.34-339-8.61Q97,856.41,0,832v1Q96.8,857.37,183,870.88Z"/>
    <path d="M217,791.84c68.28,8.91,132,13.36,192,13.36A1050.93,1050.93,0,0,0,562.2,794.47C647,782,725.24,758.31,801.37,722c67.23-32,124.51-69.59,179.91-105.91,78.85-51.7,153.33-100.54,246.34-126.74,90-25.37,166.41-2.58,263.13,26.28,27.14,8.1,55.21,16.48,86,24.59,31.68,8.34,65.34,18.85,101,30,45.32,14.16,96.69,30.2,151.86,44q46.26,11.61,90.37,19.33v-1q-43.95-7.73-90.13-19.29c-55.14-13.83-106.5-29.87-151.81-44-35.65-11.14-69.33-21.65-101-30-30.81-8.11-58.87-16.48-86-24.58-96.87-28.9-173.38-51.73-263.69-26.29-93.15,26.25-167.69,75.13-246.61,126.87-55.37,36.31-112.62,73.85-179.79,105.85-76,36.22-154.17,59.89-238.88,72.34-102.74,15.11-215.59,14.25-345-2.63C149.53,782,77,768.6,0,750.67v1C77,769.61,149.43,783,217,791.84Z"/>
    <path d="M1177.74,1033.2c-72.22-3.11-135.09.77-192.23,11.86A550.53,550.53,0,0,0,871.32,1080h2.54a550,550,0,0,1,111.84-34c57.06-11.07,119.87-15,192-11.84,51.18,2.07,107.33,17.13,170.3,45.8h2.38C1286.49,1050.69,1229.58,1035.3,1177.74,1033.2Z"/>
    <path d="M418.57,755.39q89,0,167.41-11.85c85.71-12.91,164.8-36.58,241.79-72.34C895.68,639.64,953.27,603,1009,567.62c79.48-50.53,154.55-98.25,247.55-122.89,89.22-23.64,163.19.39,256.84,30.8,29.11,9.46,59.21,19.23,92.62,28.59,25.82,7.22,52.9,15.71,81.56,24.7,51,16,108.8,34.1,172.57,49q30.44,7.1,59.89,12.3v-1q-29.34-5.19-59.66-12.25c-63.74-14.86-121.52-33-172.5-48.95-28.67-9-55.76-17.48-81.59-24.71-33.4-9.34-63.48-19.12-92.58-28.57-93.81-30.47-167.91-54.53-257.41-30.82-93.15,24.68-168.28,72.45-247.83,123-55.67,35.39-113.23,72-181.08,103.51-76.9,35.73-155.9,59.37-241.52,72.26C424.62,766.84,231.45,753.84,0,702.74v1C156.32,738.26,295.2,755.39,418.57,755.39Z"/>
    <path d="M423.66,722.39q94.84,0,178.08-12.76c86.32-13.21,166-36.85,243.55-72.28,68.36-31.23,126.16-67.22,182.06-102,79.93-49.76,155.42-96.77,248.43-120.37,88.82-22.55,161.38,2.32,253.24,33.81,30.23,10.36,61.49,21.08,96.43,31.25,22,6.4,44.79,13.6,69,21.23,54.59,17.25,116.46,36.79,186,52.2q20,4.42,39.57,8v-1q-19.45-3.54-39.36-7.95c-69.52-15.4-131.37-34.93-185.94-52.17-24.17-7.63-47-14.84-69-21.24-34.92-10.16-66.17-20.88-96.39-31.23-92-31.55-164.7-56.46-253.8-33.84-93.16,23.64-168.72,70.69-248.72,120.49-55.87,34.79-113.64,70.76-181.95,102-77.48,35.39-157,59-243.28,72.2-165.4,25.3-363.71,13-601.59-37.56v1C158,705.7,298.58,722.39,423.66,722.39Z"/>
    <path d="M169.36,902.51c76.67,12.82,147.28,19.21,213.21,19.21a904.5,904.5,0,0,0,123.67-8.17c184.67-25.45,299.21-106,410-183.92,77.56-54.56,150.82-106.09,244-136,42.89-13.79,86-18,135.79-13.17,45.61,4.41,92.85,15.75,147.54,28.89,20.78,5,42.27,10.15,65.13,15.28,45.85,10.29,95.8,26.33,148.68,43.32,32.32,10.37,65.74,21.1,101.19,31.54,60,17.65,113.79,30.81,161.49,40.59v-1c-47.62-9.76-101.37-22.91-161.2-40.52-35.45-10.43-68.86-21.16-101.17-31.54-52.91-17-102.88-33-148.77-43.33-22.86-5.14-44.34-10.29-65.11-15.28-54.73-13.15-102-24.5-147.68-28.91-49.9-4.83-93.17-.63-136.2,13.2-93.29,30-166.61,81.58-244.24,136.18C805,806.65,690.54,887.14,506.11,912.56c-99.82,13.76-209.92,10.15-336.58-11Q89.57,888.15,0,864.94v1Q89.34,889.12,169.36,902.51Z"/>
    <path d="M223.71,776c66.91,8.39,129.42,12.58,188.43,12.58,55.52,0,108-3.71,158-11.13,85.11-12.62,163.63-36.3,240-72.41C877.64,673.21,935,636,990.52,600c79.06-51.31,153.73-99.77,246.73-125.45,89.72-24.78,165.27-1.58,260.91,27.79,27.84,8.55,56.62,17.39,88.36,25.92,29.7,8,61.15,17.81,94.44,28.21,47.25,14.76,100.8,31.48,158.83,45.7q41,10,80.21,16.89v-1q-39.11-6.86-80-16.84c-58-14.21-111.54-30.93-158.78-45.69-33.29-10.4-64.75-20.22-94.47-28.21-31.72-8.53-60.5-17.37-88.33-25.91-95.79-29.42-171.46-52.66-261.47-27.8-93.15,25.72-167.88,74.22-247,125.57-55.47,36-112.82,73.23-180.22,105.07C733.44,740.24,655,763.89,570,776.5c-103.16,15.29-216.39,14.82-346.16-1.45C154.27,766.33,79.48,752.8,0,734.6v1C79.43,753.81,154.18,767.32,223.71,776Z"/>
    <path d="M230.46,760.25c65.49,7.88,126.79,11.82,184.75,11.82,57.29,0,111.32-3.86,162.86-11.56,85.41-12.76,164.22-36.44,240.91-72.37,67.69-31.72,125.18-68.64,180.77-104.36,79.27-50.91,154.14-99,247.13-124.17,89.46-24.2,164.2-.59,258.82,29.3,28.49,9,58,18.31,90.55,27.26,27.75,7.61,57,16.76,88,26.44C1733.36,558,1789.06,575.4,1850,590q35.68,8.53,70,14.56v-1q-34.23-6-69.82-14.51c-60.86-14.55-116.54-32-165.66-47.32-31-9.69-60.23-18.84-88-26.46-32.57-8.94-62-18.24-90.51-27.24-94.78-29.94-169.64-53.59-259.38-29.31-93.14,25.2-168.08,73.33-247.41,124.29-55.56,35.7-113,72.61-180.65,104.29C742,723.12,663.24,746.77,577.92,759.52c-103.57,15.48-217.19,15.4-347.34-.27C159,750.64,82,737,0,718.61v1C81.91,738.05,158.92,751.64,230.46,760.25Z"/>
    <path d="M421.2,738.88q91.86,0,172.67-12.3c86-13.06,165.39-36.71,242.67-72.31,68.14-31.39,125.83-67.69,181.63-102.8,79.7-50.14,155-97.51,248-121.63,89-23.08,162.25,1.36,255,32.31,29.68,9.91,60.38,20.16,94.58,29.92,23.88,6.82,48.82,14.66,75.22,23,52.81,16.61,112.67,35.43,179.33,50.59q25.2,5.73,49.73,10.12v-1q-24.4-4.38-49.51-10.08c-66.62-15.14-126.46-34-179.25-50.56-26.41-8.31-51.35-16.15-75.25-23-34.18-9.76-64.86-20-94.54-29.91-92.89-31-166.26-55.49-255.55-32.33-93.15,24.17-168.5,71.57-248.26,121.76C961.87,585.71,904.2,622,836.12,653.36c-77.19,35.56-156.48,59.19-242.4,72.23C430.42,750.39,234.67,737.74,0,686.87v1C157.21,722,297,738.88,421.2,738.88Z"/>
    <path d="M1148.52,1069.34c-59.06-1.59-113,1.88-163.16,10.66h6c48.45-8,100.44-11.19,157.17-9.66a342.89,342.89,0,0,1,71.06,9.66h4.25A346.5,346.5,0,0,0,1148.52,1069.34Z"/>
    <path d="M107.59,1045c84.95,18.51,162,27.69,233.22,27.69a752.69,752.69,0,0,0,92.73-5.56c178.3-22.16,290.15-108,398.32-190.95C908,817.73,980,762.53,1073.48,727.56c101.31-37.9,196.88-21.07,329.15,2.22L1421,733c65.57,11.49,138.39,37.5,215.48,65q15.09,5.4,30.56,10.89c99.16,35.18,183.76,64.11,252.92,87.17v-1c-69.09-23-153.59-51.94-252.59-87.06q-15.45-5.49-30.55-10.89c-77.14-27.55-150-53.58-215.65-65.09l-18.4-3.23c-132.44-23.32-228.12-40.17-329.68-2.18-93.63,35-165.64,90.27-241.88,148.76C653.41,1011.81,470.61,1152,0,1016.66v1.07Q55.53,1033.65,107.59,1045Z"/>
    <path d="M121.37,1013.31C204.68,1030.5,280.51,1039,350.73,1039a782.92,782.92,0,0,0,99-6.09C629.47,1010,741.91,925.4,850.65,843.55,927.12,786,999.34,731.62,1092.74,697.79c98.92-35.84,190-18.63,316.08,5.18q15.47,2.92,31.69,5.95c61,11.36,128.53,34.77,200,59.55,15.21,5.27,30.93,10.72,46.86,16.15,90,30.67,167.63,55,232.6,74.2v-1.05c-64.9-19.14-142.46-43.48-232.28-74.1-15.92-5.43-31.65-10.88-46.85-16.15-71.54-24.79-139.11-48.21-200.18-59.58q-16.23-3-31.69-6c-126.22-23.85-217.42-41.07-316.6-5.14-93.54,33.88-165.82,88.3-242.35,145.9-108.63,81.78-221,166.33-400.42,189.21-96.89,12.34-204.2,5.92-328.06-19.63Q62.86,1000.21,0,982.55v1Q62.85,1001.25,121.37,1013.31Z"/>
    <path d="M114.48,1029.15c84.15,17.84,160.6,26.7,231.33,26.7a766.12,766.12,0,0,0,95.84-5.82c179-22.53,291.15-107.75,399.61-190.17,76.32-58,148.41-112.79,241.85-147.19,100.06-36.84,193.3-19.84,322.35,3.7q12.42,2.26,25.31,4.6c63.27,11.43,133.43,36.11,207.71,62.23,12.6,4.44,25.63,9,38.76,13.59,94.53,32.87,175.66,59.43,242.76,80.46v-1c-67-21-148-47.53-242.43-80.36-13.12-4.56-26.16-9.15-38.76-13.58C1564.49,756.12,1494.3,731.43,1431,720l-25.31-4.6c-129.21-23.57-222.56-40.59-322.88-3.66C989.18,746.19,917,801,840.65,859.06,732.3,941.4,620.27,1026.54,441.53,1049c-96.48,12.14-203.38,5.31-326.84-20.87Q59.22,1016.41,0,999.57v1Q59.18,1017.41,114.48,1029.15Z"/>
    <path d="M1158.26,1057.29c-84-2.71-157.55,4.63-224.16,22.71h3.8c65.58-17.36,137.88-24.37,220.33-21.71,35,1.06,71.93,8.24,111.42,21.71h3.06C1232.09,1065.89,1194.14,1058.38,1158.26,1057.29Z"/>
    <path d="M1168,1045.25c-104-3.91-191.5,7.23-269.35,34.75h3.07c77-26.78,163.63-37.62,266.24-33.75,43.86,1.55,91.08,12.68,142.81,33.75h2.64C1260.68,1058.28,1212.61,1046.82,1168,1045.25Z"/>
    <path d="M162.53,918.33c77.72,13.42,149.16,20.11,215.8,20.11a886.27,886.27,0,0,0,119.87-7.85c184-25.1,298.2-106.24,408.67-184.71,77.39-55,150.5-106.91,243.68-137.41,93.77-30.69,174.84-11.85,287.06,14.21,19.59,4.56,39.85,9.26,61.3,14,47.94,10.5,100.32,27.45,155.78,45.4,30,9.71,61,19.75,93.67,29.58,64.17,19.3,121.41,33.71,171.64,44.46v-1c-50.15-10.73-107.3-25.12-171.36-44.39C1716,700.84,1685,690.8,1655,681.09c-55.48-18-107.88-34.92-155.87-45.43-21.44-4.69-41.7-9.4-61.29-13.95-112.37-26.11-193.56-45-287.59-14.19-93.33,30.55-166.49,82.52-244,137.54-110.37,78.4-224.5,159.47-408.22,184.54-99.4,13.56-209.1,9.55-335.37-12.25Q85.83,904.08,0,881.52v1Q85.61,905,162.53,918.33Z"/>
    <path d="M128.24,997.47c82.46,16.54,157.64,24.76,227.33,24.76a797.41,797.41,0,0,0,102.28-6.36C638.27,992.6,751,908.54,860,827.25c76.61-57.12,149-111.08,242.34-144.35,97.87-34.88,187-17.45,310.28,6.68,12.14,2.37,24.69,4.83,37.58,7.3,58.75,11.25,123.69,33.45,192.44,57,17.77,6.07,36.15,12.36,54.88,18.61C1783,801,1857.24,823.36,1920,840.8v-1c-62.68-17.42-136.8-39.76-222.13-68.26-18.72-6.25-37.1-12.53-54.87-18.61-68.78-23.51-133.75-45.73-192.57-57q-19.34-3.71-37.58-7.29C1289.38,664.44,1200.17,647,1102,682c-93.5,33.32-165.92,87.32-242.6,144.49-108.92,81.21-221.55,165.19-401.72,188.43-97.31,12.55-205,6.54-329.28-18.39Q66.52,984.07,0,965.56v1Q66.53,985.09,128.24,997.47Z"/>
    <path d="M155.69,934.16c78.73,14,151,21,218.29,21a868,868,0,0,0,116.17-7.54c183.26-24.73,297.19-106.46,407.37-185.5,77.23-55.4,150.18-107.72,243.39-138.77,94.46-31.46,176.93-12.94,291.06,12.7,18.32,4.11,37.26,8.37,57.21,12.63,50,10.68,104.88,28.59,162.94,47.56,27.62,9,56.19,18.35,86.08,27.53,68.46,21.05,129.12,36.8,181.8,48.61v-1c-52.6-11.79-113.16-27.53-181.51-48.53-29.87-9.18-58.44-18.51-86.06-27.54-58.08-19-112.94-36.88-163-47.58-19.94-4.26-38.88-8.51-57.2-12.63-114.29-25.67-196.87-44.22-291.59-12.67-93.36,31.09-166.37,83.47-243.67,138.91C786.85,840.29,673,921.94,490,946.64c-99,13.36-208.29,9-334.16-13.47Q82.1,920,0,898.17v1Q81.89,921,155.69,934.16Z"/>
    <path d="M148.84,950c79.71,14.64,152.73,21.93,220.68,21.93a847.89,847.89,0,0,0,112.57-7.23C664.64,940.31,778.27,858,888.16,778.4c77.07-55.83,149.87-108.56,243.12-140.16,95.21-32.26,179.15-14,295.34,11.19,17,3.68,34.48,7.49,52.82,11.3,52.19,10.86,109.51,29.77,170.2,49.79,25.22,8.32,51.3,16.93,78.4,25.43,72.82,22.86,136.9,40.08,192,53v-1c-55-13-119-30.15-191.67-53-27.08-8.5-53.16-17.11-78.38-25.43-60.71-20-118.06-39-170.3-49.81-18.35-3.82-35.87-7.62-52.81-11.3C1310.49,623.2,1226.42,605,1131,637.3c-93.39,31.64-166.25,84.42-243.39,140.29C777.78,857.12,664.25,939.35,482,963.69,383.39,976.85,274.49,972.05,149,949c-47.67-8.76-97.24-20-149-34v1C51.71,930,101.22,941.23,148.84,950Z"/>
    <path d="M142,965.81c80.66,15.27,154.43,22.86,223,22.86a832.57,832.57,0,0,0,109-6.93c181.84-24,295.17-106.9,404.77-187.06,76.92-56.26,149.57-109.4,242.85-141.55,96-33.1,181.57-15.15,300,9.68,15.47,3.25,31.47,6.6,48.11,10,54.35,11,114.17,31,177.52,52.09,22.78,7.6,46.34,15.46,70.65,23.25,77.24,24.76,144.76,43.56,202.12,57.8v-1c-57.28-14.23-124.7-33-201.82-57.72-24.3-7.79-47.86-15.65-70.64-23.25-63.37-21.13-123.23-41.1-177.63-52.12-16.64-3.37-32.64-6.72-48.1-10C1303.25,637,1217.6,619,1121.32,652.18c-93.43,32.21-166.14,85.39-243.12,141.69C768.7,874,655.47,956.77,473.89,980.75c-98.15,13-206.65,7.75-331.72-15.92Q73.85,951.9,0,931.81v1Q73.88,952.92,142,965.81Z"/>
    <path d="M135.12,981.64c81.57,15.9,156.05,23.8,225.19,23.8a815.31,815.31,0,0,0,105.63-6.64C647.07,975.16,760.11,891.68,869.42,811,946.18,754.27,1018.69,700.73,1112,668c96.91-34,184.16-16.29,304.93,8.17,13.87,2.81,28.21,5.72,43,8.64,56.53,11.14,118.91,32.19,184.94,54.48,20.3,6.85,41.28,13.93,62.8,21,81,26.51,151.81,47,212.28,62.88v-1c-60.39-15.83-131.09-36.32-212-62.8-21.51-7-42.5-14.12-62.79-21-66.07-22.29-128.47-43.36-185.07-54.51-14.83-2.92-29.17-5.83-43-8.64-120.93-24.5-208.3-42.2-305.46-8.14-93.46,32.76-166,86.35-242.86,143.09-109.21,80.64-222.14,164-403,187.65-97.73,12.76-205.84,7.15-330.5-17.15Q70.18,968,0,948.66v1Q70.2,969,135.12,981.64Z"/>
</svg>