<?xml version="1.0" encoding="utf-8"?>
<!-- Generator: Adobe Illustrator 23.1.1, SVG Export Plug-In . SVG Version: 6.00 Build 0)  -->
<svg version="1.1" id="Layer_1" xmlns="http://www.w3.org/2000/svg" xmlns:xlink="http://www.w3.org/1999/xlink" x="0px" y="0px"
	 viewBox="0 0 1920 695" style="enable-background:new 0 0 1920 695;" xml:space="preserve">
<style type="text/css">
	.st0{fill:#F2F2F2;}
</style>
<path class="st0" d="M1920,128.6c-15.8,17.8-32.6,35.2-50.2,51.9c-66.3,62.8-141.7,114.3-224,153.3
	c-97.9,46.3-203.4,73.3-313.5,80.2c-127.9,8-262.7-11.1-400.8-56.9c-141.7-47-277.8-70.2-404.4-69.1c-109.8,1-212.9,20.1-306.7,57
	c-79,31-149.7,73.8-210.2,127c-3.4,3-6.8,6.1-10.2,9.2v44.5c10-10.2,20.4-20.1,31.3-29.7c57.7-50.8,125.2-91.6,200.7-121.3
	c90.1-35.4,189.4-53.8,295.2-54.8c123.2-1.1,255.8,21.6,394.1,67.5c142,47.1,280.9,66.7,412.9,58.4c114.2-7.2,223.6-35.2,325.2-83.2
	c85.4-40.4,163.5-93.9,232.3-159c9.6-9.1,19.1-18.5,28.2-28V128.6z"/>
</svg>
