<?xml version="1.0" encoding="utf-8"?>
<!-- Generator: Adobe Illustrator 23.1.1, SVG Export Plug-In . SVG Version: 6.00 Build 0)  -->
<svg version="1.1" id="Layer_1" xmlns="http://www.w3.org/2000/svg" xmlns:xlink="http://www.w3.org/1999/xlink" x="0px" y="0px"
	 viewBox="0 0 1920 607" style="enable-background:new 0 0 1920 607;" xml:space="preserve">
<style type="text/css">
	.st0{fill:url(#SVGID_1_);}
</style>
<linearGradient id="SVGID_1_" gradientUnits="userSpaceOnUse" x1="-78.3051" y1="355.3835" x2="2006.1171" y2="273.8264">
	<stop  offset="0" style="stop-color:#FF8F1C"/>
	<stop  offset="0.5" style="stop-color:#C800A1"/>
	<stop  offset="1" style="stop-color:#5C068C"/>
</linearGradient>
<path class="st0" d="M1920,399.9c-13,18.1-26.6,34.9-40.8,50.4c-43.3,47.2-91.4,81.3-142.9,101.2c-38.4,14.9-78.4,21.7-118.8,20.2
	c-41.1-1.5-82.6-11.7-123.4-30.1c-133.9-60.6-195.3-172.5-254.7-280.7c-27.1-49.3-52.6-95.9-84.2-136.2
	c-25.6-32.7-57.8-59.8-95.5-80.5c-35.9-19.7-75-32.7-116.3-38.7c-84-12.1-167.1,7.1-228.1,52.7c-60.3,45.1-96.9,100.3-132.3,153.6
	c-37.1,56-72.2,108.8-132.8,149.8c-54.6,37-114.1,53-176.8,47.4c-55.2-4.9-111.8-26.7-163.6-63.3C62.1,312.2,25.2,261.7,0,219v58.7
	c24.3,34,54.8,68.4,91.3,94.2c56.4,39.8,118.4,63.6,179.2,69c70.2,6.2,136.7-11.6,197.5-52.8c65.8-44.6,104.3-102.6,141.5-158.6
	c35.4-53.4,68.9-103.8,124.8-145.6c54.2-40.6,128.7-57.6,204.4-46.6c37.5,5.4,73,17.2,105.5,35c33.9,18.6,62.8,42.9,85.7,72.2
	c30,38.3,55,83.8,81.4,131.9c30.1,54.8,61.2,111.5,102.9,163.2c47.8,59.2,102.3,102.2,166.7,131.3c48.7,22,98.5,33.1,147.6,33.1
	c40.5,0,80.6-7.5,119.3-22.5c56.1-21.8,108.2-58.6,154.9-109.4c5.9-6.4,11.6-13,17.3-19.7V399.9z"/>
</svg>
