<?xml version="1.0" encoding="utf-8"?>
<!-- Generator: Adobe Illustrator 23.1.1, SVG Export Plug-In . SVG Version: 6.00 Build 0)  -->
<svg version="1.1" id="Layer_1" xmlns="http://www.w3.org/2000/svg" xmlns:xlink="http://www.w3.org/1999/xlink" x="0px" y="0px"
	 viewBox="0 0 1920 858" style="enable-background:new 0 0 1920 858;" xml:space="preserve">
<style type="text/css">
	.st0{fill:#F2F2F2;}
</style>
<path class="st0" d="M1920,229.9c-8.6,12.4-17.2,24.1-25.9,35.1c-45.7,57.8-93.5,98.4-146.2,124.3c-97.4,47.7-196.5,36.1-292.4,24.8
	c-72.8-8.5-141.6-16.6-209.1-0.6c-124.4,29.4-194,84.4-255.5,132.8c-63.4,50-118.2,93.2-220.6,104.8
	c-50.8,5.8-103.2,11.7-246.8-42.3c-70.5-26.5-143.4-54-243.4-41.7C162.9,581.5,75.7,626.5,0,688.3v41.9
	c16.5-14.5,33.7-28.4,51.7-41.2c34-24.3,68.2-43.2,104.6-57.8c40.1-16.1,81.9-26.7,127.7-32.3c92.1-11.3,158.2,13.5,228.2,39.9
	c61.8,23.3,125.3,47.2,209,47.2c16.7,0,34.2-1,52.6-3c111.4-12.7,172.3-60.7,236.8-111.5c61.8-48.7,125.6-99,243.1-126.8
	c62-14.7,128.1-6.9,198,1.3c100.5,11.8,204.4,24,310.2-27.9c57.1-28,108.6-71.5,157.3-133.2c0.3-0.3,0.5-0.7,0.8-1V229.9z"/>
</svg>
