<?xml version="1.0" encoding="utf-8"?>
<!-- Generator: Adobe Illustrator 23.1.1, SVG Export Plug-In . SVG Version: 6.00 Build 0)  -->
<svg version="1.1" id="Layer_1" xmlns="http://www.w3.org/2000/svg" xmlns:xlink="http://www.w3.org/1999/xlink" x="0px" y="0px"
	 viewBox="0 0 1920 576" style="enable-background:new 0 0 1920 576;" xml:space="preserve">
<style type="text/css">
	.st0{fill:#F2F2F2;}
</style>
<path class="st0" d="M1920,497.1c-136.2-66.6-250-31.3-352.3,0.6c-72.1,22.4-140.2,43.6-207.6,25.9c-91-23.9-145.2-66.2-202.6-110.9
	c-59.3-46.2-120.7-94.1-225.1-123.1c-49.2-13.7-99.7-17.1-154.5-10.5c-48.4,5.8-94.1,18.3-142.5,31.5
	c-85.5,23.3-173.9,47.5-280.2,32.6c-54.1-7.5-100.6-20.7-142.3-40.3c-38.3-18-72.6-41.5-105-71.9C68.1,193.6,33.5,147.8,0,97.5v56.3
	c26.6,37,54.6,71,85.9,100.3c71.4,67,155.5,105.3,264.8,120.6c112.8,15.7,204.5-9.3,293.1-33.5c92.3-25.2,179.4-49,279.9-21
	c98.4,27.4,157.2,73.2,214,117.5c57.4,44.7,116.8,91,214.1,116.6c76.4,20.1,148.7-2.4,225.3-26.3c104.3-32.4,211.7-65.8,342.8,4.8
	V497.1z"/>
</svg>
